<mxfile host="app.diagrams.net" agent="Mozilla/5.0 (Windows NT 10.0; Win64; x64) AppleWebKit/537.36 (KHTML, like Gecko) Chrome/138.0.0.0 Safari/537.36" version="28.0.6">
  <diagram name="Page-1" id="HCEVWLhOpOf9-7jaCYFH">
    <mxGraphModel dx="501" dy="506" grid="1" gridSize="10" guides="1" tooltips="1" connect="1" arrows="1" fold="1" page="1" pageScale="1" pageWidth="850" pageHeight="1100" math="0" shadow="0">
      <root>
        <mxCell id="0" />
        <mxCell id="1" parent="0" />
        <mxCell id="B5_pqgUknIKCM4PgPGWI-19" style="edgeStyle=orthogonalEdgeStyle;rounded=0;orthogonalLoop=1;jettySize=auto;html=1;" edge="1" parent="1" source="B5_pqgUknIKCM4PgPGWI-1" target="B5_pqgUknIKCM4PgPGWI-2">
          <mxGeometry relative="1" as="geometry" />
        </mxCell>
        <mxCell id="B5_pqgUknIKCM4PgPGWI-1" value="&lt;font style=&quot;font-size: 18px;&quot;&gt;1&lt;/font&gt;" style="ellipse;whiteSpace=wrap;html=1;aspect=fixed;" vertex="1" parent="1">
          <mxGeometry x="320" width="80" height="80" as="geometry" />
        </mxCell>
        <mxCell id="B5_pqgUknIKCM4PgPGWI-20" style="edgeStyle=orthogonalEdgeStyle;rounded=0;orthogonalLoop=1;jettySize=auto;html=1;entryX=0.5;entryY=0;entryDx=0;entryDy=0;" edge="1" parent="1" source="B5_pqgUknIKCM4PgPGWI-2" target="B5_pqgUknIKCM4PgPGWI-4">
          <mxGeometry relative="1" as="geometry" />
        </mxCell>
        <mxCell id="B5_pqgUknIKCM4PgPGWI-2" value="&lt;font style=&quot;font-size: 18px;&quot;&gt;2&lt;/font&gt;" style="ellipse;whiteSpace=wrap;html=1;aspect=fixed;" vertex="1" parent="1">
          <mxGeometry x="320" y="120" width="80" height="80" as="geometry" />
        </mxCell>
        <mxCell id="B5_pqgUknIKCM4PgPGWI-21" style="edgeStyle=orthogonalEdgeStyle;rounded=0;orthogonalLoop=1;jettySize=auto;html=1;entryX=0.5;entryY=0;entryDx=0;entryDy=0;" edge="1" parent="1" source="B5_pqgUknIKCM4PgPGWI-4" target="B5_pqgUknIKCM4PgPGWI-5">
          <mxGeometry relative="1" as="geometry" />
        </mxCell>
        <mxCell id="B5_pqgUknIKCM4PgPGWI-4" value="&lt;font style=&quot;font-size: 18px;&quot;&gt;3&lt;/font&gt;" style="ellipse;whiteSpace=wrap;html=1;aspect=fixed;" vertex="1" parent="1">
          <mxGeometry x="320" y="240" width="80" height="80" as="geometry" />
        </mxCell>
        <mxCell id="B5_pqgUknIKCM4PgPGWI-22" style="edgeStyle=orthogonalEdgeStyle;rounded=0;orthogonalLoop=1;jettySize=auto;html=1;entryX=0.5;entryY=0;entryDx=0;entryDy=0;" edge="1" parent="1" source="B5_pqgUknIKCM4PgPGWI-5" target="B5_pqgUknIKCM4PgPGWI-8">
          <mxGeometry relative="1" as="geometry" />
        </mxCell>
        <mxCell id="B5_pqgUknIKCM4PgPGWI-5" value="&lt;font style=&quot;font-size: 18px;&quot;&gt;4&lt;/font&gt;" style="ellipse;whiteSpace=wrap;html=1;aspect=fixed;" vertex="1" parent="1">
          <mxGeometry x="320" y="360" width="80" height="80" as="geometry" />
        </mxCell>
        <mxCell id="B5_pqgUknIKCM4PgPGWI-23" style="edgeStyle=orthogonalEdgeStyle;rounded=0;orthogonalLoop=1;jettySize=auto;html=1;entryX=0.5;entryY=0;entryDx=0;entryDy=0;" edge="1" parent="1" source="B5_pqgUknIKCM4PgPGWI-8" target="B5_pqgUknIKCM4PgPGWI-12">
          <mxGeometry relative="1" as="geometry" />
        </mxCell>
        <mxCell id="B5_pqgUknIKCM4PgPGWI-8" value="&lt;font style=&quot;font-size: 18px;&quot;&gt;5&lt;/font&gt;" style="ellipse;whiteSpace=wrap;html=1;aspect=fixed;" vertex="1" parent="1">
          <mxGeometry x="320" y="480" width="80" height="80" as="geometry" />
        </mxCell>
        <mxCell id="B5_pqgUknIKCM4PgPGWI-41" style="rounded=0;orthogonalLoop=1;jettySize=auto;html=1;" edge="1" parent="1" source="B5_pqgUknIKCM4PgPGWI-12" target="B5_pqgUknIKCM4PgPGWI-14">
          <mxGeometry relative="1" as="geometry" />
        </mxCell>
        <mxCell id="B5_pqgUknIKCM4PgPGWI-42" style="rounded=0;orthogonalLoop=1;jettySize=auto;html=1;" edge="1" parent="1" source="B5_pqgUknIKCM4PgPGWI-12" target="B5_pqgUknIKCM4PgPGWI-16">
          <mxGeometry relative="1" as="geometry" />
        </mxCell>
        <mxCell id="B5_pqgUknIKCM4PgPGWI-12" value="&lt;font style=&quot;font-size: 18px;&quot;&gt;6&lt;/font&gt;" style="ellipse;whiteSpace=wrap;html=1;aspect=fixed;" vertex="1" parent="1">
          <mxGeometry x="320" y="600" width="80" height="80" as="geometry" />
        </mxCell>
        <mxCell id="B5_pqgUknIKCM4PgPGWI-14" value="&lt;font style=&quot;font-size: 18px;&quot;&gt;7&lt;/font&gt;" style="ellipse;whiteSpace=wrap;html=1;aspect=fixed;" vertex="1" parent="1">
          <mxGeometry x="200" y="720" width="80" height="80" as="geometry" />
        </mxCell>
        <mxCell id="B5_pqgUknIKCM4PgPGWI-43" style="rounded=0;orthogonalLoop=1;jettySize=auto;html=1;" edge="1" parent="1" source="B5_pqgUknIKCM4PgPGWI-16" target="B5_pqgUknIKCM4PgPGWI-26">
          <mxGeometry relative="1" as="geometry" />
        </mxCell>
        <mxCell id="B5_pqgUknIKCM4PgPGWI-44" style="rounded=0;orthogonalLoop=1;jettySize=auto;html=1;entryX=0;entryY=0;entryDx=0;entryDy=0;" edge="1" parent="1" source="B5_pqgUknIKCM4PgPGWI-16" target="B5_pqgUknIKCM4PgPGWI-28">
          <mxGeometry relative="1" as="geometry" />
        </mxCell>
        <mxCell id="B5_pqgUknIKCM4PgPGWI-16" value="&lt;font style=&quot;font-size: 18px;&quot;&gt;8&lt;/font&gt;" style="ellipse;whiteSpace=wrap;html=1;aspect=fixed;" vertex="1" parent="1">
          <mxGeometry x="440" y="720" width="80" height="80" as="geometry" />
        </mxCell>
        <mxCell id="B5_pqgUknIKCM4PgPGWI-26" value="&lt;font style=&quot;font-size: 18px;&quot;&gt;9&lt;/font&gt;" style="ellipse;whiteSpace=wrap;html=1;aspect=fixed;" vertex="1" parent="1">
          <mxGeometry x="320" y="840" width="80" height="80" as="geometry" />
        </mxCell>
        <mxCell id="B5_pqgUknIKCM4PgPGWI-45" style="rounded=0;orthogonalLoop=1;jettySize=auto;html=1;" edge="1" parent="1" source="B5_pqgUknIKCM4PgPGWI-28" target="B5_pqgUknIKCM4PgPGWI-31">
          <mxGeometry relative="1" as="geometry" />
        </mxCell>
        <mxCell id="B5_pqgUknIKCM4PgPGWI-46" style="edgeStyle=orthogonalEdgeStyle;rounded=0;orthogonalLoop=1;jettySize=auto;html=1;entryX=0.5;entryY=0;entryDx=0;entryDy=0;" edge="1" parent="1" source="B5_pqgUknIKCM4PgPGWI-28" target="B5_pqgUknIKCM4PgPGWI-38">
          <mxGeometry relative="1" as="geometry" />
        </mxCell>
        <mxCell id="B5_pqgUknIKCM4PgPGWI-28" value="&lt;font style=&quot;font-size: 18px;&quot;&gt;10&lt;/font&gt;" style="ellipse;whiteSpace=wrap;html=1;aspect=fixed;" vertex="1" parent="1">
          <mxGeometry x="560" y="840" width="80" height="80" as="geometry" />
        </mxCell>
        <mxCell id="B5_pqgUknIKCM4PgPGWI-47" style="rounded=0;orthogonalLoop=1;jettySize=auto;html=1;exitX=1;exitY=1;exitDx=0;exitDy=0;entryX=0;entryY=0;entryDx=0;entryDy=0;" edge="1" parent="1" source="B5_pqgUknIKCM4PgPGWI-31" target="B5_pqgUknIKCM4PgPGWI-38">
          <mxGeometry relative="1" as="geometry" />
        </mxCell>
        <mxCell id="B5_pqgUknIKCM4PgPGWI-31" value="&lt;font style=&quot;font-size: 18px;&quot;&gt;11&lt;/font&gt;" style="ellipse;whiteSpace=wrap;html=1;aspect=fixed;" vertex="1" parent="1">
          <mxGeometry x="440" y="960" width="80" height="80" as="geometry" />
        </mxCell>
        <mxCell id="B5_pqgUknIKCM4PgPGWI-38" value="&lt;font style=&quot;font-size: 18px;&quot;&gt;end&lt;/font&gt;" style="ellipse;whiteSpace=wrap;html=1;aspect=fixed;" vertex="1" parent="1">
          <mxGeometry x="560" y="1090" width="80" height="80" as="geometry" />
        </mxCell>
      </root>
    </mxGraphModel>
  </diagram>
</mxfile>
